<?xml version="1.0"?>
<svg xmlns="http://www.w3.org/2000/svg" xmlns:xlink="http://www.w3.org/1999/xlink" xmlns:svgjs="http://svgjs.com/svgjs" version="1.1" width="512" height="512" x="0" y="0" viewBox="0 0 512 512" style="enable-background:new 0 0 512 512" xml:space="preserve"><g><g xmlns="http://www.w3.org/2000/svg"><path d="m466.61 255.997c.129.002.259.003.39.003 24.813 0 45-20.187 45-45 0-9.47-3.073-18.462-8.696-25.986 5.718-10.642 8.696-22.202 8.696-34.014 0-23.527-11.286-45.597-30.001-59.673.001-.108.001-.217.001-.327 0-41.458-34.535-75-76-75-41.355 0-75 33.645-75 75 0 .11 0 .219.001.327-18.715 14.076-30.001 36.146-30.001 59.673 0 11.812 2.978 23.372 8.696 34.014-5.623 7.524-8.696 16.516-8.696 25.986 0 24.813 20.187 45 45 45 .108 0 .218-.001.325-.002 11.026 14.689 26.938 24.786 44.675 28.462v88.927l-120-134.36v-28.027c0-8.284-6.716-15-15-15s-15 6.716-15 15v28.027l-120 134.36v-88.927c17.737-3.676 33.649-13.773 44.675-28.462.107.001.217.002.325.002 24.813 0 45-20.187 45-45 0-9.47-3.073-18.462-8.696-25.986 5.718-10.642 8.696-22.202 8.696-34.014 0-23.527-11.286-45.597-30.001-59.673.001-.108.001-.217.001-.327 0-41.355-33.645-75-75-75-41.457 0-76 33.535-76 75 0 .11 0 .219.001.327-18.715 14.076-30.001 36.146-30.001 59.673 0 11.812 2.978 23.372 8.696 34.014-5.623 7.524-8.696 16.516-8.696 25.986 0 24.813 20.187 45 45 45 .131 0 .261-.001.39-.003 11.123 14.551 27.559 24.765 45.61 28.467v122.512l-52.715 59.024h-23.285c-8.284 0-15 6.716-15 15s6.716 15 15 15h482c8.284 0 15-6.716 15-15s-6.716-15-15-15h-23.285l-52.715-59.023v-122.512c18.051-3.703 34.488-13.916 45.61-28.468zm-400.934-23.68c-6.62-12.167-19.978-6.45-20.806-6.317-8.211-.07-14.87-6.772-14.87-15 0-6.123 4.138-10.004 6.604-11.772 6.914-4.956 8.327-14.676 3.104-21.396-6.441-8.289-9.708-17.316-9.708-26.832 0-16.055 8.868-31.011 23.145-39.033 10.801-6.068 6.855-17.184 6.855-20.967 0-24.393 21.065-45 46-45 24.813 0 45 20.187 45 45 0 3.635-3.716 15.028 6.855 20.967 14.277 8.022 23.145 22.978 23.145 39.033 0 9.516-3.267 18.543-9.709 26.832-5.22 6.717-3.813 16.438 3.104 21.396 2.467 1.768 6.605 5.649 6.605 11.772 0 8.228-6.659 14.929-14.87 15-1.515-.243-14.445-5.373-20.806 6.317-7.948 14.608-23.016 23.683-39.324 23.683-16.668 0-32.496-9.296-40.324-23.683zm130.324 233.683 60-80 60 80zm157.5 0-85.5-114c-2.833-3.777-7.278-6-12-6s-9.167 2.223-12 6l-85.5 114h-79.992c.135-.151 173.642-194.393 177.492-198.732 3.818 4.304 177.358 198.582 177.492 198.732zm13.176-233.683c-6.62-12.167-19.978-6.45-20.806-6.317-8.211-.07-14.87-6.772-14.87-15 0-6.123 4.138-10.004 6.604-11.772 6.914-4.956 8.327-14.676 3.104-21.396-6.441-8.289-9.708-17.316-9.708-26.832 0-16.055 8.868-31.011 23.145-39.033 10.801-6.068 6.855-17.184 6.855-20.967 0-24.813 20.187-45 45-45 24.935 0 46 20.607 46 45 0 3.724-3.927 14.909 6.855 20.967 14.277 8.022 23.145 22.978 23.145 39.033 0 9.516-3.267 18.543-9.709 26.832-5.22 6.717-3.813 16.438 3.104 21.396 2.467 1.768 6.605 5.649 6.605 11.772 0 8.228-6.659 14.929-14.87 15-1.329-.213-14.258-5.717-20.806 6.317-7.828 14.387-23.656 23.683-40.324 23.683-16.308 0-31.376-9.075-39.324-23.683z" fill="#ff7800" data-original="#000000" style=""/></g></g></svg>
