<?xml version="1.0"?>
<svg xmlns="http://www.w3.org/2000/svg" xmlns:xlink="http://www.w3.org/1999/xlink" xmlns:svgjs="http://svgjs.com/svgjs" version="1.1" width="512" height="512" x="0" y="0" viewBox="0 0 480 480.00008" style="enable-background:new 0 0 512 512" xml:space="preserve"><g><path xmlns="http://www.w3.org/2000/svg" d="m48 448c4.339844-.003906 8.667969-.457031 12.917969-1.351562l-4.800781 23.777343c-.472657 2.355469.140624 4.800781 1.667968 6.65625 1.527344 1.859375 3.808594 2.929688 6.214844 2.917969h32c3.800781 0 7.078125-2.675781 7.839844-6.398438l5.664062-28.371093c5.992188 1.835937 12.226563 2.769531 18.496094 2.769531 14.742188-.226562 29.023438-5.195312 40.726562-14.167969 34.425782 18.890625 76.117188 18.890625 110.542969 0 11.703125 8.972657 25.984375 13.941407 40.730469 14.167969 6.269531-.011719 12.5-.953125 18.492188-2.800781l5.664062 28.402343c.761719 3.722657 4.039062 6.398438 7.84375 6.398438h32c2.402344 0 4.675781-1.078125 6.195312-2.941406 1.519532-1.859375 2.125-4.304688 1.644532-6.660156l-4.761719-23.773438c4.246094.902344 8.578125 1.363281 12.921875 1.375 16.949219-.3125 33.199219-6.839844 45.652344-18.34375 1.761718-1.761719 2.601562-4.242188 2.273437-6.710938l-32-240c-.527343-3.976562-3.917969-6.945312-7.925781-6.945312h-32v-36.6875l29.652344-29.65625c2.289062-2.289062 2.972656-5.730469 1.734375-8.71875s-4.152344-4.9375-7.386719-4.9375h-64c-3.238281 0-6.152344 1.949219-7.390625 4.9375s-.554687 6.429688 1.734375 8.71875l29.65625 29.65625v36.6875h-48v-96c-.402344-11.507812-6.371094-22.105469-16-28.414062v-43.585938c0-4.417969-3.582031-8-8-8h-32c-4.421875 0-8 3.582031-8 8v43.585938c-9.632812 6.308593-15.601562 16.90625-16 28.414062v96h-80v-36.6875l29.652344-29.65625c2.289062-2.289062 2.972656-5.730469 1.734375-8.71875s-4.152344-4.9375-7.386719-4.9375h-64c-3.238281 0-6.152344 1.949219-7.390625 4.9375s-.554687 6.429688 1.734375 8.71875l29.65625 29.65625v36.6875h-96c-4.011719 0-7.402344 2.96875-7.929688 6.945312l-31.9999995 240c-.3281245 2.46875.5117185 4.949219 2.2734375 6.710938 12.453125 11.503906 28.703125 18.03125 45.65625 18.34375zm332.6875-336-12.6875 12.6875-12.691406-12.6875zm-224 0-12.6875 12.6875-12.691406-12.6875zm-67.25 352h-15.679688l4.800782-23.769531c3.289062-1.703125 6.441406-3.652344 9.441406-5.832031 2.089844 1.535156 4.257812 2.957031 6.503906 4.257812zm284.800781 0h-15.679687l-5.066406-25.375c2.242187-1.292969 4.414062-2.703125 6.507812-4.226562 3.003906 2.191406 6.171875 4.152343 9.46875 5.867187zm-78.238281-328h-16v-32h16zm-32-120h16v16h-16zm-16 64c.832031-7.171875 5.167969-13.46875 11.574219-16.800781 2.726562-1.359375 4.441406-4.152344 4.425781-7.199219v-8h16v8c.019531 3.007812 1.703125 5.753906 4.375 7.136719 6.441406 3.335937 10.796875 9.65625 11.625 16.863281v8h-24c-4.421875 0-8 3.582031-8 8v48c0 4.417969 3.578125 8 8 8h24v24h-48zm-205.265625 144h45.265625v-16h-43.128906l2.128906-16h354l30.503906 228.800781c-18.703125 15.296875-45.6875 14.957031-64-.800781l-15.601562-117.007812-15.855469 2.113281 15.421875 115.695312c-8.984375 7.070313-20.039062 11.003907-31.46875 11.199219-11.75-.265625-23.078125-4.425781-32.203125-11.832031l-7.796875-140.617188-16 .898438 7.742188 139.261719c-29.738282 16.402343-65.816407 16.382812-95.535157-.046876l7.792969-163.289062-16-.75-7.84375 164.597656c-9.097656 7.414063-20.421875 11.5625-32.15625 11.777344-11.46875-.261719-22.539062-4.230469-31.554688-11.320312l15.496094-131.742188-15.886718-1.875-15.640626 132.9375c-9.136718 7.554688-20.5625 11.785156-32.414062 12-11.441406-.261719-22.488281-4.214844-31.496094-11.265625zm0 0" fill="#ff7800" data-original="#000000" style=""/><path xmlns="http://www.w3.org/2000/svg" d="m104 208h16v16h-16zm0 0" fill="#ff7800" data-original="#000000" style=""/><path xmlns="http://www.w3.org/2000/svg" d="m392 384h16v16h-16zm0 0" fill="#ff7800" data-original="#000000" style=""/></g></svg>
