<?xml version="1.0"?>
<svg xmlns="http://www.w3.org/2000/svg" xmlns:xlink="http://www.w3.org/1999/xlink" xmlns:svgjs="http://svgjs.com/svgjs" version="1.1" width="512" height="512" x="0" y="0" viewBox="0 0 512 512" style="enable-background:new 0 0 512 512" xml:space="preserve" class=""><g><g xmlns="http://www.w3.org/2000/svg"><path d="m497 166h-120c-8.284 0-15 6.716-15 15v90c0 36.219 25.808 66.522 60 73.491v91.509h-60v-15c0-85.955-66.471-156.757-151-164.319v-15.681c0-8.284-6.716-15-15-15s-15 6.716-15 15v15.681c-84.529 7.562-151 78.364-151 164.319v15h-15c-8.284 0-15 6.716-15 15s6.716 15 15 15h482c8.284 0 15-6.716 15-15s-6.716-15-15-15h-45v-91.509c34.192-6.968 60-37.271 60-73.491v-90c0-8.284-6.716-15-15-15zm-437 255c0-74.439 61.009-135 136-135s136 60.561 136 135v15h-272zm422-150c0 24.813-20.187 45-45 45s-45-20.187-45-45v-75h90z" fill="#ff7800" data-original="#000000" style=""/><path d="m287 166h-121c-24.813 0-45 20.187-45 45 0 8.284 6.716 15 15 15s15-6.716 15-15c0-8.271 6.729-15 15-15h121c24.813 0 45-20.187 45-45s-20.187-45-45-45h-61c-8.271 0-15-6.729-15-15v-30c0-8.284-6.716-15-15-15s-15 6.716-15 15v30c0 24.813 20.187 45 45 45h61c8.271 0 15 6.729 15 15s-6.729 15-15 15z" fill="#ff7800" data-original="#000000" style=""/></g></g></svg>
