<?xml version="1.0"?>
<svg xmlns="http://www.w3.org/2000/svg" xmlns:xlink="http://www.w3.org/1999/xlink" xmlns:svgjs="http://svgjs.com/svgjs" version="1.1" width="512" height="512" x="0" y="0" viewBox="0 0 480 480" style="enable-background:new 0 0 512 512" xml:space="preserve"><g><path xmlns="http://www.w3.org/2000/svg" d="m472 200.003906c-17.941406.054688-33.644531 12.0625-38.398438 29.359375-5.042968-3.375-10.945312-5.234375-17.007812-5.359375-6.105469-12.386718-15.265625-23.011718-26.617188-30.878906 33.304688-63.9375 19.523438-142.273438-33.601562-191.007812-2.332031-2.148438-5.714844-2.71875-8.621094-1.449219l-254.953125 111.527343c-2.914062 1.273438-4.800781 4.148438-4.800781 7.328126-.007812 13.753906 1.757812 27.445312 5.257812 40.746093-1.746093-.105469-3.480468-.265625-5.257812-.265625-38.394531-.011718-72.363281 24.890625-83.898438 61.511719-11.535156 36.621094 2.027344 76.496094 33.5 98.488281h-37.601562v16h160v-16h-21.558594c19.507813-13.6875 32.632813-34.703125 36.375-58.238281 18.316406 9.421875 38.285156 15.203125 58.800782 17.023437 5.808593 5.753907 13.613281 9.054688 21.789062 9.214844 6.40625 12.984375 16.148438 24.03125 28.234375 32h-11.640625v16h176v-16h-59.648438c12.085938-7.972656 21.832032-19.015625 28.242188-32 14.609375-.304687 27.15625-10.472656 30.484375-24.703125 19.03125-3.421875 32.886719-19.960937 32.921875-39.296875v-16c0-4.417968-3.582031-8-8-8zm-122.71875-182.535156c44.617188 43.980469 55.507812 111.839844 26.894531 167.578125-4.839843-2.328125-9.871093-4.222656-15.039062-5.675781 27.503906-51.878906 16.050781-115.832032-27.746094-154.949219zm-44.191406 163.871094-11.433594-11.429688-11.3125 11.3125 7.082031 7.078125c-14.707031 8.164063-26.574219 20.621094-34.019531 35.703125-6.859375.152344-13.484375 2.523438-18.878906 6.761719-56.996094-5.976563-100.332032-53.933594-100.527344-111.242187 0-2.742188.191406-5.75.480469-8.964844l180.429687-78.9375c44.398438 34.476562 56.167969 96.621094 27.449219 144.945312-2.757813-.242187-5.535156-.5625-8.359375-.5625-10.527344.054688-20.976562 1.855469-30.910156 5.335938zm-132.898438 41.128906c15.859375 11.769531 34.25 19.671875 53.703125 23.082031-1.21875 3.351563-1.859375 6.886719-1.894531 10.453125.023438 1.855469.210938 3.707032.550781 5.527344-17.175781-2.808594-33.695312-8.722656-48.75-17.453125-.289062-7.328125-1.503906-14.585937-3.609375-21.609375zm-68.09375-97.742188 16-6.984374c0 .582031-.066406 1.214843-.066406 1.78125.03125 17.914062 3.863281 35.613281 11.25 51.929687-6.433594-3.628906-13.296875-6.433594-20.433594-8.34375-4.003906-12.425781-6.273437-25.339844-6.75-38.382813zm-16.097656 195.277344c-39.765625 0-72-32.234375-72-72 0-39.761718 32.234375-72 72-72s72 32.238282 72 72c-.042969 39.746094-32.253906 71.957032-72 72zm328-48c-1.003906-.011718-2.007812-.117187-2.992188-.3125-3.792968-.710937-7.554687 1.382813-8.945312 4.984375-11.675781 27.019531-38.644531 44.183594-68.0625 43.328125-29.421875.863282-56.390625-16.308594-68.0625-43.328125-1.1875-3.085937-4.152344-5.121093-7.457031-5.125-.5 0-1 .046875-1.488281.140625-.984376.195313-1.988282.300782-2.992188.3125-8.835938 0-16-7.164062-16-16 0-8.835937 7.164062-16 16-16 1.003906.015625 2.007812.121094 2.992188.3125 3.789062.695313 7.539062-1.394531 8.945312-4.984375 11.675781-27.015625 38.644531-44.183593 68.0625-43.328125 29.421875-.859375 56.390625 16.308594 68.0625 43.328125 1.390625 3.601563 5.152344 5.699219 8.945312 4.984375.984376-.191406 1.988282-.296875 2.992188-.3125 8.835938 0 16 7.164063 16 16 0 8.835938-7.164062 16-16 16zm48-48c-.011719 10.167969-6.417969 19.230469-16 22.632813v-6.632813c.011719-10.167968 6.417969-19.226562 16-22.632812zm0 0" fill="#ff7800" data-original="#000000" style=""/><path xmlns="http://www.w3.org/2000/svg" d="m193.386719 187.214844 16.011719-24.003906 13.3125 8.882812-16.011719 24zm0 0" fill="#ff7800" data-original="#000000" style=""/><path xmlns="http://www.w3.org/2000/svg" d="m240 183.566406h16v24h-16zm0 0" fill="#ff7800" data-original="#000000" style=""/><path xmlns="http://www.w3.org/2000/svg" d="m309.464844 159.152344 5.0625-15.167969 23.996094 8.003906-5.0625 15.171875zm0 0" fill="#ff7800" data-original="#000000" style=""/><path xmlns="http://www.w3.org/2000/svg" d="m320 103.566406h24v16h-24zm0 0" fill="#ff7800" data-original="#000000" style=""/><path xmlns="http://www.w3.org/2000/svg" d="m171.554688 144.910156 24.003906-16.003906 8.875 13.3125-24.003906 16.003906zm0 0" fill="#ff7800" data-original="#000000" style=""/><path xmlns="http://www.w3.org/2000/svg" d="m291.558594 80.910156 24-16.003906 8.875 13.3125-24 16.003906zm0 0" fill="#ff7800" data-original="#000000" style=""/><path xmlns="http://www.w3.org/2000/svg" d="m336 288.003906v16c1.535156 0 37.871094-.335937 47.585938-29.472656l-15.203126-5.054688c-5.984374 18.152344-32.144531 18.527344-32.382812 18.527344zm0 0" fill="#ff7800" data-original="#000000" style=""/><path xmlns="http://www.w3.org/2000/svg" d="m60.390625 193.316406-8.796875 13.34375c9.585938 5.695313 20.558594 8.632813 31.710938 8.488282 11.246093-.097657 22.3125-2.835938 32.304687-8l-7.152344-14.320313c-14.867187 8.433594-33.03125 8.617187-48.066406.488281zm0 0" fill="#ff7800" data-original="#000000" style=""/><path xmlns="http://www.w3.org/2000/svg" d="m184 312.003906h16v16h-16zm0 0" fill="#ff7800" data-original="#000000" style=""/><path xmlns="http://www.w3.org/2000/svg" d="m232 328.003906h16v16h-16zm0 0" fill="#ff7800" data-original="#000000" style=""/><path xmlns="http://www.w3.org/2000/svg" d="m464 320.003906h16v16h-16zm0 0" fill="#ff7800" data-original="#000000" style=""/><path xmlns="http://www.w3.org/2000/svg" d="m56 232.003906h16v16h-16zm0 0" fill="#ff7800" data-original="#000000" style=""/><path xmlns="http://www.w3.org/2000/svg" d="m88 232.003906h16v16h-16zm0 0" fill="#ff7800" data-original="#000000" style=""/><path xmlns="http://www.w3.org/2000/svg" d="m72 264.003906h16v16h-16zm0 0" fill="#ff7800" data-original="#000000" style=""/></g></svg>
