<?xml version="1.0"?>
<svg xmlns="http://www.w3.org/2000/svg" xmlns:xlink="http://www.w3.org/1999/xlink" xmlns:svgjs="http://svgjs.com/svgjs" version="1.1" width="512" height="512" x="0" y="0" viewBox="0 0 512.007 512.007" style="enable-background:new 0 0 512 512" xml:space="preserve"><g><g xmlns="http://www.w3.org/2000/svg"><path d="m211.003 320.481c-39.194 11.036-73.174 36.325-95.123 71.666-17.342-4.524-36.427-2.32-52.068 6.618-11.602 6.63-26.015 6.629-37.616 0-1.565-.894-3.184-1.736-4.812-2.501-7.496-3.522-16.432-.302-19.956 7.195-3.524 7.498-.303 16.432 7.195 19.956.909.427 1.813.897 2.688 1.397 20.781 11.875 46.603 11.875 67.384 0 11.729-6.703 26.887-6.703 38.616 0 20.781 11.875 46.603 11.875 67.384 0 11.602-6.629 26.015-6.629 37.616 0 20.781 11.875 46.603 11.875 67.384 0 11.602-6.629 26.015-6.629 37.616 0 10.391 5.938 22.042 8.906 33.692 8.906s23.301-2.969 33.692-8.906c11.602-6.629 26.015-6.629 37.616 0 20.771 11.869 47.613 11.869 68.384 0 .875-.5 1.779-.97 2.688-1.397 7.498-3.524 10.719-12.458 7.195-19.956-3.523-7.498-12.458-10.717-19.956-7.195-1.628.765-3.247 1.607-4.812 2.501-11.729 6.703-26.887 6.703-38.616 0-15.611-8.921-34.066-11.139-51.093-6.657-21.085-33.929-53.264-58.578-90.497-70.246 8.168-39.096 27.099-75.763 54.295-105.04l9.761 1.952c12.199 2.44 21.634 11.005 25.239 22.911 3.605 11.907.505 24.267-8.291 33.063-5.858 5.858-5.858 15.355 0 21.213 5.857 5.857 15.355 5.858 21.213 0 16.753-16.753 22.657-40.294 15.791-62.97-3.709-12.251-10.664-22.639-19.934-30.339 23.796.472 42.324 20.347 42.324 43.139v18.35c0 8.284 6.716 15 15 15s15-6.716 15-15v-18.35c0-38.945-31.605-72.623-72.122-73.168l25.154-25.155c5.858-5.858 5.858-15.355 0-21.213-5.857-5.858-15.355-5.858-21.213 0l-25.164 25.164c-.546-40.7-34.374-72.131-73.159-72.131h-18.35c-8.284 0-15 6.716-15 15s6.716 15 15 15h18.35c22.774 0 42.667 18.507 43.139 42.323-7.7-9.27-18.088-16.225-30.339-19.934-22.677-6.866-46.216-.963-62.97 15.791-5.858 5.858-5.858 15.355 0 21.213 5.857 5.858 15.355 5.858 21.213 0 8.797-8.796 21.159-11.896 33.063-8.291 11.906 3.605 20.472 13.04 22.911 25.239l2.021 10.105c-31.181 33.325-52.889 75.171-62.256 119.811-6.672-.816-13.437-1.257-20.28-1.257-5.044 0-10.045.25-15 .696v-8.417c0-62.72-23.611-123.995-67.537-170.828l2.021-10.109c5.203-26.016 37.224-35.698 55.975-16.948 5.857 5.858 15.354 5.858 21.213 0 5.858-5.858 5.858-15.355 0-21.213-28.139-28.14-71.314-22.337-93.309 4.144.5-25.22 23.127-43.324 43.139-43.324h18.35c8.284 0 15-6.716 15-15s-6.716-15-15-15h-18.35c-35.978 0-72.594 30.947-73.159 73.131l-25.164-25.164c-5.857-5.858-15.355-5.858-21.213 0s-5.858 15.355 0 21.213l25.154 25.155c-40.525.548-72.122 34.229-72.122 73.168v18.35c0 8.284 6.716 15 15 15s15-6.716 15-15v-18.35c0-22.778 18.512-42.667 42.324-43.139-9.27 7.7-16.225 18.088-19.934 30.339-6.866 22.676-.963 46.217 15.791 62.97 5.857 5.857 15.355 5.858 21.213 0s5.858-15.355 0-21.213c-8.796-8.796-11.896-21.156-8.291-33.063 3.605-11.906 13.041-20.472 25.239-22.911l9.759-1.952c38.035 40.81 58.9 93.671 58.9 149.746v13.912zm-202.38 162.934c.909.427 1.813.897 2.688 1.397 20.781 11.875 46.603 11.875 67.384 0 11.729-6.703 26.887-6.703 38.616 0 20.781 11.875 46.603 11.875 67.384 0 11.602-6.629 26.015-6.629 37.616 0 20.781 11.875 46.603 11.875 67.384 0 11.602-6.629 26.015-6.629 37.616 0 10.391 5.938 22.042 8.906 33.692 8.906s23.301-2.969 33.692-8.906c11.602-6.629 26.015-6.629 37.616 0 20.771 11.869 47.613 11.869 68.384 0 .875-.5 1.779-.97 2.688-1.397 7.498-3.524 10.719-12.458 7.195-19.956-3.523-7.498-12.458-10.717-19.956-7.195-1.628.765-3.247 1.607-4.812 2.501-11.729 6.703-26.887 6.703-38.616 0-20.781-11.875-46.603-11.875-67.384 0-11.602 6.629-26.015 6.629-37.616 0-20.781-11.875-46.603-11.875-67.384 0-11.602 6.629-26.015 6.629-37.616 0-20.781-11.875-46.603-11.875-67.384 0-11.602 6.629-26.015 6.629-37.616 0-20.771-11.869-47.613-11.869-68.384 0-11.602 6.63-26.015 6.629-37.616 0-1.565-.894-3.184-1.736-4.812-2.501-7.496-3.523-16.432-.303-19.956 7.195-3.522 7.498-.3 16.432 7.197 19.956zm358.886-80.253c-8.576 1.482-17.57.027-25.314-4.397-20.781-11.875-46.603-11.875-67.384 0-11.602 6.629-26.015 6.629-37.616 0-20.781-11.875-46.603-11.875-67.384 0-7.743 4.425-16.737 5.879-25.314 4.397 24.99-36.674 66.358-58.874 111.506-58.874s86.516 22.2 111.506 58.874z" fill="#ff7800" data-original="#000000" style=""/></g></g></svg>
