<?xml version="1.0"?>
<svg xmlns="http://www.w3.org/2000/svg" xmlns:xlink="http://www.w3.org/1999/xlink" xmlns:svgjs="http://svgjs.com/svgjs" version="1.1" width="512" height="512" x="0" y="0" viewBox="0 0 479.87498 479" style="enable-background:new 0 0 512 512" xml:space="preserve" class=""><g><path xmlns="http://www.w3.org/2000/svg" d="m55.941406 40.4375v8c.039063 30.910156 25.089844 55.960938 56 56h24v-8c-.039062-30.910156-25.089844-55.960938-56-56zm63.199219 48h-7.199219c-19.003906-.019531-35.375-13.386719-39.199218-32h7.199218c19 .019531 35.375 13.386719 39.199219 32zm0 0" fill="#ff7800" data-original="#000000" style="" class=""/><path xmlns="http://www.w3.org/2000/svg" d="m447.941406 16.4375v-8h-24c-30.910156.039062-55.960937 25.089844-56 56v8h24c30.910156-.039062 55.960938-25.089844 56-56zm-56 40h-7.199218c3.824218-18.613281 20.195312-31.980469 39.199218-32h7.199219c-3.824219 18.613281-20.199219 31.980469-39.199219 32zm0 0" fill="#ff7800" data-original="#000000" style="" class=""/><path xmlns="http://www.w3.org/2000/svg" d="m431.941406 168.4375c-.601562 0-1.191406 0-1.792968 0-7.480469-32.945312-36.875-56.25-70.660157-56.015625-33.785156.230469-62.855469 23.9375-69.882812 56.984375-10.703125-2.214844-21.84375-.664062-31.535157 4.390625-10.609374-23.25-34.042968-37.945313-59.589843-37.371094s-48.300781 16.308594-57.851563 40.011719l-37.671875-37.671875c-16.726562-15.515625-42.585937-15.515625-59.3125 0l-32 32c-15.527343 16.722656-15.527343 42.589844 0 59.3125l18.34375 18.359375h-6.046875c-2.460937 0-4.789062 1.136719-6.304687 3.074219-1.515625 1.941406-2.050781 4.472656-1.457031 6.863281l31.945312 127.796875c2.390625 10.761719 12 22.265625 31.816406 22.265625h8v24c0 4.417969 3.582032 8 8 8h288c4.417969 0 8-3.582031 8-8v-24h8c19.816406 0 29.421875-11.503906 31.761719-22.0625l32-128c.390625-1.816406.125-3.714844-.753906-5.351562 15.332031-13.023438 20.917969-34.222657 13.992187-53.105469-6.921875-18.886719-24.886718-31.453125-45-31.480469zm-232-16c21.78125.035156 40.808594 14.734375 46.34375 35.800781.714844 2.648438 2.738282 4.746094 5.359375 5.558594 2.621094.8125 5.472657.222656 7.5625-1.558594 9.289063-8.085937 22.429688-10.046875 33.679688-5.023437 2.386719 1.078125 5.148437.921875 7.398437-.421875s3.699219-3.703125 3.878906-6.316407c1.988282-28.902343 25.71875-51.507812 54.683594-52.09375 28.96875-.582031 53.589844 21.046876 56.742188 49.847657.246094 2.277343 1.460937 4.34375 3.335937 5.667969 1.871094 1.320312 4.222657 1.777343 6.457031 1.25 2.148438-.492188 4.351563-.730469 6.558594-.710938 7.722656.027344 15.171875 2.871094 20.945313 8h-188.945313v8c.011719 5.113281.4375 10.21875 1.273438 15.265625-21.304688-13.367187-49.332032-7.816406-63.9375 12.65625-8.875-18.089844-25.710938-30.972656-45.488282-34.808594-1.054687-.210937-2.160156-.320312-3.253906-.472656v-.082031c3.484375-23.441406 23.703125-40.742188 47.40625-40.558594zm223.808594 96h-21.542969c11.722657-10.296875 19.277344-24.523438 21.238281-40h16.097657c-1.511719 14.527344-6.972657 28.359375-15.792969 40zm-248.945312 0c-3.589844-14.113281-16.300782-23.992188-30.863282-23.992188s-27.273437 9.878907-30.863281 23.992188h-16.417969c3.921875-23.066406 23.882813-39.957031 47.28125-40 2.964844-.015625 5.925782.253906 8.839844.800781 19.449219 3.726563 34.652344 18.949219 38.359375 38.398438.054687.257812.074219.535156.113281.800781zm-17.085938 0h-27.554688c2.824219-4.945312 8.082032-7.996094 13.777344-7.996094 5.695313 0 10.953125 3.050782 13.777344 7.996094zm51.308594 0c3.609375-14.113281 16.320312-23.988281 30.890625-23.988281 14.566406 0 27.28125 9.875 30.886719 23.988281zm87.105468 0c-8.820312-11.640625-14.28125-25.472656-15.792968-40h16.097656c1.960938 15.476562 9.515625 29.703125 21.238281 40zm79.953126-2.855469c-.488282.175781-.960938.375-1.457032.535157-9.5625 3.007812-19.816406 3.007812-29.375 0-.496094-.160157-.96875-.359376-1.457031-.535157-1-.351562-1.992187-.710937-2.960937-1.136719-.160157-.0625-.3125-.152343-.472657-.222656l19.578125-29.386718 19.574219 29.363281c-.160156.070312-.308594.160156-.46875.222656-.96875.449219-1.960937.816406-2.960937 1.160156zm16.726562-10.265625-17.917969-26.878906h32.328125c-1.75 10.289062-6.808594 19.730469-14.410156 26.878906zm-65.742188 0c-7.601562-7.148437-12.664062-16.589844-14.410156-26.878906h32.328125zm-304.113281-16.535156c-9.355469-10.441406-9.355469-26.246094 0-36.6875l32-32c10.414063-9.425781 26.273438-9.425781 36.6875 0l43.089844 43.085938c-13.757813 1.988281-26.492187 8.410156-36.265625 18.289062l6.6875-33.464844-15.6875-3.167968-5.0625 25.34375-21.433594-21.398438-11.3125 11.3125 21.433594 21.433594-25.34375 5.070312 3.136719 15.679688 37.503906-7.496094c-4.171875 7.285156-6.855469 15.328125-7.898437 23.65625h-27.878907zm352.984375 205.65625h-272v-16h272zm69.761719-160-29.601563 118.265625c-.800781 3.628906-4 9.734375-16.183593 9.734375h-319.976563c-12.199218 0-15.382812-6.105469-16.238281-9.9375l-29.515625-118.0625zm-1.257813-18.550781c7.519532-13.972657 11.46875-29.582031 11.496094-45.449219v-4.945312c5.128906 5.773437 7.972656 13.222656 8 20.945312-.015625 12.835938-7.6875 24.421875-19.496094 29.449219zm0 0" fill="#ff7800" data-original="#000000" style="" class=""/><path xmlns="http://www.w3.org/2000/svg" d="m231.941406 104.4375c0 17.671875 14.328125 32 32 32s32-14.328125 32-32-14.328125-32-32-32-32 14.328125-32 32zm32-16c8.835938 0 16 7.164062 16 16s-7.164062 16-16 16c-8.835937 0-16-7.164062-16-16s7.164063-16 16-16zm0 0" fill="#ff7800" data-original="#000000" style="" class=""/><path xmlns="http://www.w3.org/2000/svg" d="m215.941406 56.4375c0-13.253906-10.746094-24-24-24s-24 10.746094-24 24 10.746094 24 24 24 24-10.746094 24-24zm-32 0c0-4.417969 3.582032-8 8-8 4.417969 0 8 3.582031 8 8s-3.582031 8-8 8c-4.417968 0-8-3.582031-8-8zm0 0" fill="#ff7800" data-original="#000000" style="" class=""/><path xmlns="http://www.w3.org/2000/svg" d="m335.941406 24.4375c0-13.253906-10.746094-24-24-24s-24 10.746094-24 24 10.746094 24 24 24 24-10.746094 24-24zm-32 0c0-4.417969 3.582032-8 8-8 4.417969 0 8 3.582031 8 8s-3.582031 8-8 8c-4.417968 0-8-3.582031-8-8zm0 0" fill="#ff7800" data-original="#000000" style="" class=""/><path xmlns="http://www.w3.org/2000/svg" d="m247.941406 32.4375h16v16h-16zm0 0" fill="#ff7800" data-original="#000000" style="" class=""/><path xmlns="http://www.w3.org/2000/svg" d="m327.941406 80.4375h16v16h-16zm0 0" fill="#ff7800" data-original="#000000" style="" class=""/><path xmlns="http://www.w3.org/2000/svg" d="m175.941406 104.4375h16v16h-16zm0 0" fill="#ff7800" data-original="#000000" style="" class=""/><path xmlns="http://www.w3.org/2000/svg" d="m343.941406 376.4375h48c3.441406-.003906 6.496094-2.207031 7.582032-5.472656l16-48-15.199219-5.054688-14.152344 42.527344h-42.230469zm0 0" fill="#ff7800" data-original="#000000" style="" class=""/><path xmlns="http://www.w3.org/2000/svg" d="m311.941406 360.4375h16v16h-16zm0 0" fill="#ff7800" data-original="#000000" style="" class=""/></g></svg>
