<?xml version="1.0"?>
<svg xmlns="http://www.w3.org/2000/svg" xmlns:xlink="http://www.w3.org/1999/xlink" xmlns:svgjs="http://svgjs.com/svgjs" version="1.1" width="512" height="512" x="0" y="0" viewBox="0 0 512 512" style="enable-background:new 0 0 512 512" xml:space="preserve"><g><g xmlns="http://www.w3.org/2000/svg"><path d="m480.889 288.192c-5.414-30.826-30.313-55.337-61.154-60.956-5.652-30.352-29.646-54.329-60.002-59.97-5.619-30.238-29.434-54.163-59.618-59.934-6.721-51.461-50.85-91.332-104.115-91.332-53.258 0-97.381 39.854-104.111 91.306-30.097 5.64-55.291 29.644-60.777 60.886-18.038 5.867-31.112 22.84-31.112 42.808 0 24.813 20.187 45 45 44.99h151.041c-9.438 12.554-15.041 28.139-15.041 45.01 0 41.355 33.645 75 75 75h211c24.813 0 45-20.187 45-45 0-19.968-13.074-36.941-31.111-42.808zm-450.889-77.192c0-8.271 6.729-15 15-15 8.284 0 15-6.716 15-15 0-24.393 21.065-45 46-45 8.284 0 15-6.716 15-15 0-41.355 33.645-75 75-75s75 33.645 75 75c0 8.284 6.716 15 15 15 24.813 0 45 20.187 45 45s-20.187 45-45 45h-241c-8.271 0-15-6.729-15-15zm437 135h-211c-24.813 0-45-20.187-45-45s20.187-45 45-45h30c35.53 0 65.347-24.843 73.048-58.064 18.469 5.606 31.952 22.788 31.952 43.064 0 8.284 6.716 15 15 15 24.935 0 46 20.607 46 45 0 8.284 6.716 15 15 15 8.271 0 15 6.729 15 15s-6.729 15-15 15z" fill="#ff7800" data-original="#000000" style=""/><path d="m376 406h-240c-8.271 0-15-6.729-15-15s6.729-15 15-15c8.284 0 15-6.716 15-15s-6.716-15-15-15c-24.813 0-45 20.187-45 45s20.187 45 45 45h240c8.284 0 15-6.716 15-15s-6.716-15-15-15z" fill="#ff7800" data-original="#000000" style=""/><path d="m196 466h-151c-8.271 0-15-6.729-15-15s6.729-15 15-15c8.284 0 15-6.716 15-15s-6.716-15-15-15c-24.813 0-45 20.187-45 45s20.187 45 45 45h151c8.284 0 15-6.716 15-15s-6.716-15-15-15z" fill="#ff7800" data-original="#000000" style=""/><path d="m316 466h-60c-8.284 0-15 6.716-15 15s6.716 15 15 15h60c8.284 0 15-6.716 15-15s-6.716-15-15-15z" fill="#ff7800" data-original="#000000" style=""/></g></g></svg>
